<?xml version="1.0" standalone="no"?>
<!DOCTYPE svg PUBLIC "-//W3C//DTD SVG 20010904//EN"
 "http://www.w3.org/TR/2001/REC-SVG-20010904/DTD/svg10.dtd">
<svg version="1.0" xmlns="http://www.w3.org/2000/svg"
 width="170.000000pt" height="170.000000pt" viewBox="0 0 170.000000 170.000000"
 preserveAspectRatio="xMidYMid meet">
<metadata>
Created by potrace 1.11, written by Peter Selinger 2001-2013
</metadata>
<g transform="translate(0.000000,170.000000) scale(0.100000,-0.100000)"
fill="#000000" stroke="none">
<path d="M708 1543 l-266 -3 -204 -327 c-111 -180 -204 -330 -206 -333 -1 -4
63 -114 144 -246 80 -131 177 -288 214 -349 l67 -110 405 -3 406 -2 78 132
c43 73 126 214 184 313 58 99 117 199 130 222 l23 42 -220 333 -219 333 -135
0 c-74 0 -254 -1 -401 -2z"/>
</g>
</svg>
